<mxfile host="app.diagrams.net" modified="2023-09-29T06:15:15.512Z" agent="Mozilla/5.0 (Windows NT 10.0; Win64; x64) AppleWebKit/537.36 (KHTML, like Gecko) Chrome/117.0.0.0 Safari/537.36" etag="rg1Np6a5UyDF4s_tRUg8" version="22.0.0" type="device">
  <diagram name="Page-1" id="b520641d-4fe3-3701-9064-5fc419738815">
    <mxGraphModel dx="1975" dy="472" grid="1" gridSize="10" guides="1" tooltips="1" connect="1" arrows="1" fold="1" page="1" pageScale="1" pageWidth="1100" pageHeight="850" background="none" math="0" shadow="0">
      <root>
        <mxCell id="0" />
        <mxCell id="1" parent="0" />
        <mxCell id="swGtMdUfvQRQwvAoMlXC-1" value="Lost and Found System" style="ellipse;whiteSpace=wrap;html=1;" parent="1" vertex="1">
          <mxGeometry x="430" y="240" width="300" height="170" as="geometry" />
        </mxCell>
        <mxCell id="swGtMdUfvQRQwvAoMlXC-7" style="edgeStyle=orthogonalEdgeStyle;rounded=0;orthogonalLoop=1;jettySize=auto;html=1;exitX=0.5;exitY=0;exitDx=0;exitDy=0;entryX=0.2;entryY=0.102;entryDx=0;entryDy=0;entryPerimeter=0;" parent="1" source="swGtMdUfvQRQwvAoMlXC-3" target="swGtMdUfvQRQwvAoMlXC-1" edge="1">
          <mxGeometry relative="1" as="geometry">
            <mxPoint x="520" y="246" as="targetPoint" />
            <Array as="points">
              <mxPoint x="60" y="290" />
              <mxPoint x="60" y="200" />
              <mxPoint x="490" y="200" />
            </Array>
          </mxGeometry>
        </mxCell>
        <mxCell id="swGtMdUfvQRQwvAoMlXC-26" value="Login credentials ( email, control_id, password )" style="edgeLabel;html=1;align=center;verticalAlign=middle;resizable=0;points=[];" parent="swGtMdUfvQRQwvAoMlXC-7" vertex="1" connectable="0">
          <mxGeometry x="-0.0833" y="-1" relative="1" as="geometry">
            <mxPoint x="37" as="offset" />
          </mxGeometry>
        </mxCell>
        <mxCell id="swGtMdUfvQRQwvAoMlXC-10" style="edgeStyle=orthogonalEdgeStyle;rounded=0;orthogonalLoop=1;jettySize=auto;html=1;" parent="1" edge="1">
          <mxGeometry relative="1" as="geometry">
            <mxPoint y="280" as="sourcePoint" />
            <mxPoint x="560" y="240" as="targetPoint" />
            <Array as="points">
              <mxPoint y="290" />
              <mxPoint y="120" />
              <mxPoint x="560" y="120" />
              <mxPoint x="560" y="240" />
            </Array>
          </mxGeometry>
        </mxCell>
        <mxCell id="swGtMdUfvQRQwvAoMlXC-28" value="Messages (m_content )" style="edgeLabel;html=1;align=center;verticalAlign=middle;resizable=0;points=[];" parent="swGtMdUfvQRQwvAoMlXC-10" vertex="1" connectable="0">
          <mxGeometry x="-0.0505" relative="1" as="geometry">
            <mxPoint as="offset" />
          </mxGeometry>
        </mxCell>
        <mxCell id="swGtMdUfvQRQwvAoMlXC-16" style="edgeStyle=orthogonalEdgeStyle;rounded=0;orthogonalLoop=1;jettySize=auto;html=1;exitX=0.5;exitY=1;exitDx=0;exitDy=0;entryX=0.25;entryY=1;entryDx=0;entryDy=0;" parent="1" source="swGtMdUfvQRQwvAoMlXC-1" target="swGtMdUfvQRQwvAoMlXC-3" edge="1">
          <mxGeometry relative="1" as="geometry">
            <Array as="points">
              <mxPoint x="580" y="480" />
              <mxPoint x="-60" y="480" />
            </Array>
          </mxGeometry>
        </mxCell>
        <mxCell id="swGtMdUfvQRQwvAoMlXC-22" value="Messages" style="edgeLabel;html=1;align=center;verticalAlign=middle;resizable=0;points=[];" parent="swGtMdUfvQRQwvAoMlXC-16" vertex="1" connectable="0">
          <mxGeometry x="0.1304" y="3" relative="1" as="geometry">
            <mxPoint as="offset" />
          </mxGeometry>
        </mxCell>
        <mxCell id="swGtMdUfvQRQwvAoMlXC-29" style="edgeStyle=orthogonalEdgeStyle;rounded=0;orthogonalLoop=1;jettySize=auto;html=1;exitX=0.25;exitY=0;exitDx=0;exitDy=0;" parent="1" edge="1">
          <mxGeometry relative="1" as="geometry">
            <mxPoint x="-40.00000000000023" y="290" as="sourcePoint" />
            <mxPoint x="580" y="240" as="targetPoint" />
            <Array as="points">
              <mxPoint x="-40" y="80" />
              <mxPoint x="580" y="80" />
              <mxPoint x="580" y="240" />
            </Array>
          </mxGeometry>
        </mxCell>
        <mxCell id="swGtMdUfvQRQwvAoMlXC-30" value="Updated Profile info (phone, email,password)" style="edgeLabel;html=1;align=center;verticalAlign=middle;resizable=0;points=[];" parent="swGtMdUfvQRQwvAoMlXC-29" vertex="1" connectable="0">
          <mxGeometry x="-0.2095" y="-1" relative="1" as="geometry">
            <mxPoint x="101" as="offset" />
          </mxGeometry>
        </mxCell>
        <mxCell id="swGtMdUfvQRQwvAoMlXC-3" value="Users" style="rounded=0;whiteSpace=wrap;html=1;" parent="1" vertex="1">
          <mxGeometry x="-120" y="290" width="240" height="60" as="geometry" />
        </mxCell>
        <mxCell id="swGtMdUfvQRQwvAoMlXC-4" value="admin" style="rounded=0;whiteSpace=wrap;html=1;" parent="1" vertex="1">
          <mxGeometry x="1120" y="280" width="120" height="60" as="geometry" />
        </mxCell>
        <mxCell id="swGtMdUfvQRQwvAoMlXC-5" style="edgeStyle=orthogonalEdgeStyle;rounded=0;orthogonalLoop=1;jettySize=auto;html=1;exitX=0.836;exitY=-0.013;exitDx=0;exitDy=0;entryX=0;entryY=0;entryDx=0;entryDy=0;exitPerimeter=0;" parent="1" source="swGtMdUfvQRQwvAoMlXC-3" target="swGtMdUfvQRQwvAoMlXC-1" edge="1">
          <mxGeometry relative="1" as="geometry">
            <Array as="points">
              <mxPoint x="81" y="240" />
              <mxPoint x="474" y="240" />
            </Array>
          </mxGeometry>
        </mxCell>
        <mxCell id="swGtMdUfvQRQwvAoMlXC-25" value="Registration info ( email, phone,password,control_id,full name )" style="edgeLabel;html=1;align=center;verticalAlign=middle;resizable=0;points=[];" parent="swGtMdUfvQRQwvAoMlXC-5" vertex="1" connectable="0">
          <mxGeometry x="-0.2916" relative="1" as="geometry">
            <mxPoint x="73" as="offset" />
          </mxGeometry>
        </mxCell>
        <mxCell id="swGtMdUfvQRQwvAoMlXC-9" style="edgeStyle=orthogonalEdgeStyle;rounded=0;orthogonalLoop=1;jettySize=auto;html=1;entryX=0.299;entryY=0.045;entryDx=0;entryDy=0;entryPerimeter=0;" parent="1" target="swGtMdUfvQRQwvAoMlXC-1" edge="1">
          <mxGeometry relative="1" as="geometry">
            <mxPoint x="30" y="290" as="sourcePoint" />
            <mxPoint x="520" y="240" as="targetPoint" />
            <Array as="points">
              <mxPoint x="30" y="290" />
              <mxPoint x="30" y="160" />
              <mxPoint x="520" y="160" />
            </Array>
          </mxGeometry>
        </mxCell>
        <mxCell id="swGtMdUfvQRQwvAoMlXC-27" value="Report items (name,desc,location,image,date,time,progress,security_qa,etc )" style="edgeLabel;html=1;align=center;verticalAlign=middle;resizable=0;points=[];" parent="swGtMdUfvQRQwvAoMlXC-9" vertex="1" connectable="0">
          <mxGeometry x="-0.0032" y="1" relative="1" as="geometry">
            <mxPoint x="62" as="offset" />
          </mxGeometry>
        </mxCell>
        <mxCell id="swGtMdUfvQRQwvAoMlXC-14" style="edgeStyle=orthogonalEdgeStyle;rounded=0;orthogonalLoop=1;jettySize=auto;html=1;exitX=0.247;exitY=0.939;exitDx=0;exitDy=0;entryX=0.5;entryY=1;entryDx=0;entryDy=0;exitPerimeter=0;" parent="1" source="swGtMdUfvQRQwvAoMlXC-1" target="swGtMdUfvQRQwvAoMlXC-3" edge="1">
          <mxGeometry relative="1" as="geometry">
            <Array as="points">
              <mxPoint y="400" />
            </Array>
          </mxGeometry>
        </mxCell>
        <mxCell id="swGtMdUfvQRQwvAoMlXC-20" value="Profile info( name, control_faculty_id, email, phone, etc )" style="edgeLabel;html=1;align=center;verticalAlign=middle;resizable=0;points=[];" parent="swGtMdUfvQRQwvAoMlXC-14" vertex="1" connectable="0">
          <mxGeometry x="-0.0427" y="-2" relative="1" as="geometry">
            <mxPoint as="offset" />
          </mxGeometry>
        </mxCell>
        <mxCell id="swGtMdUfvQRQwvAoMlXC-15" style="edgeStyle=orthogonalEdgeStyle;rounded=0;orthogonalLoop=1;jettySize=auto;html=1;entryX=0.377;entryY=1.005;entryDx=0;entryDy=0;entryPerimeter=0;exitX=0.369;exitY=0.985;exitDx=0;exitDy=0;exitPerimeter=0;" parent="1" source="swGtMdUfvQRQwvAoMlXC-1" edge="1">
          <mxGeometry relative="1" as="geometry">
            <mxPoint x="550" y="400" as="sourcePoint" />
            <mxPoint x="-40" y="350" as="targetPoint" />
            <Array as="points">
              <mxPoint x="541" y="409" />
              <mxPoint x="540" y="409" />
              <mxPoint x="540" y="440" />
              <mxPoint x="-40" y="440" />
            </Array>
          </mxGeometry>
        </mxCell>
        <mxCell id="swGtMdUfvQRQwvAoMlXC-21" value="FAQs (question,answer)" style="edgeLabel;html=1;align=center;verticalAlign=middle;resizable=0;points=[];" parent="swGtMdUfvQRQwvAoMlXC-15" vertex="1" connectable="0">
          <mxGeometry x="0.0676" y="2" relative="1" as="geometry">
            <mxPoint as="offset" />
          </mxGeometry>
        </mxCell>
        <mxCell id="swGtMdUfvQRQwvAoMlXC-17" style="edgeStyle=orthogonalEdgeStyle;rounded=0;orthogonalLoop=1;jettySize=auto;html=1;exitX=0.661;exitY=0.966;exitDx=0;exitDy=0;exitPerimeter=0;" parent="1" source="swGtMdUfvQRQwvAoMlXC-1" edge="1">
          <mxGeometry relative="1" as="geometry">
            <mxPoint x="-80" y="350" as="targetPoint" />
            <Array as="points">
              <mxPoint x="628" y="520" />
              <mxPoint x="-80" y="520" />
            </Array>
          </mxGeometry>
        </mxCell>
        <mxCell id="swGtMdUfvQRQwvAoMlXC-24" value="Email,notifications" style="edgeLabel;html=1;align=center;verticalAlign=middle;resizable=0;points=[];" parent="swGtMdUfvQRQwvAoMlXC-17" vertex="1" connectable="0">
          <mxGeometry x="0.1631" y="-1" relative="1" as="geometry">
            <mxPoint as="offset" />
          </mxGeometry>
        </mxCell>
        <mxCell id="swGtMdUfvQRQwvAoMlXC-18" style="edgeStyle=orthogonalEdgeStyle;rounded=0;orthogonalLoop=1;jettySize=auto;html=1;exitX=0.042;exitY=0.684;exitDx=0;exitDy=0;entryX=1;entryY=0.5;entryDx=0;entryDy=0;exitPerimeter=0;" parent="1" source="swGtMdUfvQRQwvAoMlXC-1" target="swGtMdUfvQRQwvAoMlXC-3" edge="1">
          <mxGeometry relative="1" as="geometry">
            <Array as="points">
              <mxPoint x="160" y="356" />
              <mxPoint x="160" y="320" />
            </Array>
          </mxGeometry>
        </mxCell>
        <mxCell id="swGtMdUfvQRQwvAoMlXC-19" value="Reported items( name,desc,location,&lt;br&gt;image,date,time.category,security QAs)" style="edgeLabel;html=1;align=center;verticalAlign=middle;resizable=0;points=[];" parent="swGtMdUfvQRQwvAoMlXC-18" vertex="1" connectable="0">
          <mxGeometry x="-0.0269" y="1" relative="1" as="geometry">
            <mxPoint as="offset" />
          </mxGeometry>
        </mxCell>
      </root>
    </mxGraphModel>
  </diagram>
</mxfile>
